<?xml version="1.0" standalone="no"?>
<!DOCTYPE svg PUBLIC "-//W3C//DTD SVG 20010904//EN"
 "http://www.w3.org/TR/2001/REC-SVG-20010904/DTD/svg10.dtd">
<svg version="1.0" xmlns="http://www.w3.org/2000/svg"
 width="645.000000pt" height="645.000000pt" viewBox="0 0 645.000000 645.000000"
 preserveAspectRatio="xMidYMid meet">
<metadata>
Created by potrace 1.11, written by Peter Selinger 2001-2013
</metadata>
<g transform="translate(0.000000,645.000000) scale(0.100000,-0.100000)"
fill="#000000" stroke="none">
<path d="M1633 6323 c9 -2 23 -2 30 0 6 3 -1 5 -18 5 -16 0 -22 -2 -12 -5z"/>
<path d="M1973 6323 c32 -2 81 -2 110 0 29 2 3 3 -58 3 -60 0 -84 -1 -52 -3z"/>
<path d="M2253 6323 c15 -2 39 -2 55 0 15 2 2 4 -28 4 -30 0 -43 -2 -27 -4z"/>
<path d="M2588 6323 c12 -2 30 -2 40 0 9 3 -1 5 -23 4 -22 0 -30 -2 -17 -4z"/>
<path d="M2833 6323 c15 -2 37 -2 50 0 12 2 0 4 -28 4 -27 0 -38 -2 -22 -4z"/>
<path d="M3033 6323 c42 -2 112 -2 155 0 42 1 7 3 -78 3 -85 0 -120 -2 -77 -3z"/>
<path d="M3463 6323 c26 -2 68 -2 95 0 26 2 4 3 -48 3 -52 0 -74 -1 -47 -3z"/>
<path d="M3683 6313 c26 -2 68 -2 95 0 26 2 4 3 -48 3 -52 0 -74 -1 -47 -3z"/>
<path d="M3988 6313 c28 -2 76 -2 105 0 28 2 5 3 -53 3 -58 0 -81 -1 -52 -3z"/>
<path d="M4283 6313 c15 -2 39 -2 55 0 15 2 2 4 -28 4 -30 0 -43 -2 -27 -4z"/>
<path d="M4478 6313 c17 -2 47 -2 65 0 17 2 3 4 -33 4 -36 0 -50 -2 -32 -4z"/>
<path d="M1482 6110 c0 -19 2 -27 5 -17 2 9 2 25 0 35 -3 9 -5 1 -5 -18z"/>
<path d="M4952 6030 c0 -14 2 -19 5 -12 2 6 2 18 0 25 -3 6 -5 1 -5 -13z"/>
<path d="M1499 5993 c-16 -19 -16 5 -6 -593 9 -561 14 -675 34 -691 7 -7 17
-9 21 -5 4 4 6 110 5 234 -3 416 -14 1047 -18 1060 -6 17 -20 15 -36 -5z"/>
<path d="M4970 5798 c0 -9 5 -20 10 -23 13 -8 13 5 0 25 -8 13 -10 13 -10 -2z"/>
<path d="M3370 5751 c0 -5 -23 -11 -51 -15 -54 -7 -86 -24 -130 -66 -15 -14
-33 -30 -40 -37 -30 -26 -41 -45 -32 -54 5 -5 29 13 58 42 28 28 67 60 87 70
110 56 213 14 238 -98 8 -33 5 -51 -14 -99 -35 -90 -63 -129 -198 -268 l-126
-130 -41 33 c-84 67 -280 268 -315 323 -44 72 -51 98 -36 143 30 90 125 132
220 96 28 -11 50 -15 50 -10 0 26 -138 62 -205 52 -51 -7 -135 -71 -135 -103
0 -10 -7 -25 -15 -34 -17 -17 -20 -36 -5 -36 6 0 10 -14 10 -31 0 -34 47 -124
80 -154 11 -10 20 -23 20 -30 0 -6 12 -24 28 -38 15 -15 34 -35 44 -45 9 -9
51 -49 95 -88 43 -40 98 -90 123 -113 71 -66 83 -61 210 72 195 205 233 255
256 338 32 124 7 225 -64 256 -20 8 -45 19 -54 24 -23 12 -58 12 -58 0z"/>
<path d="M6010 5431 c-8 -16 -5 -23 18 -38 15 -11 40 -24 55 -31 52 -22 99
-67 119 -112 32 -73 50 -152 44 -197 -7 -56 0 -73 33 -73 43 0 51 17 51 105 0
61 -5 92 -20 123 -11 22 -20 46 -20 51 0 19 -100 129 -145 160 -55 37 -118 43
-135 12z"/>
<path d="M272 5318 c-43 -30 -142 -141 -142 -159 0 -5 -9 -29 -20 -51 -15 -31
-20 -62 -20 -123 0 -88 8 -105 51 -105 33 0 40 17 33 73 -6 45 12 124 44 197
20 45 67 90 119 112 15 7 40 20 55 31 23 15 26 22 18 38 -17 30 -85 24 -138
-13z"/>
<path d="M5829 5233 c-20 -5 -41 -47 -33 -67 3 -9 26 -15 64 -18 78 -6 121
-38 149 -113 12 -31 21 -66 21 -78 0 -29 18 -47 47 -47 35 0 43 27 26 95 -36
144 -171 256 -274 228z"/>
<path d="M461 5106 c-69 -43 -120 -113 -142 -196 -20 -72 -13 -100 24 -100 29
0 47 18 47 47 0 12 9 47 21 78 28 75 71 107 149 113 64 5 77 17 59 56 -22 47
-85 48 -158 2z"/>
<path d="M4982 5054 c3 -39 3 -39 63 -52 183 -40 290 -84 395 -163 75 -56 117
-104 152 -174 23 -47 63 -174 56 -179 -2 -1 -32 -14 -68 -29 -426 -173 -959
-279 -1665 -329 -238 -17 -1072 -17 -1310 0 -663 47 -1200 148 -1603 302 -92
36 -87 23 -55 140 33 121 106 217 221 293 70 46 234 117 271 117 18 0 21 6 21
46 0 38 -3 45 -17 40 -10 -3 -38 -10 -63 -16 -214 -55 -408 -201 -481 -361
-90 -198 -104 -530 -95 -2359 6 -1408 11 -1536 67 -1685 32 -87 107 -155 243
-223 174 -87 474 -177 771 -231 519 -95 1551 -119 2350 -56 338 27 598 73 885
158 330 98 519 207 575 332 58 131 62 189 76 1258 12 946 1 2264 -21 2482 -28
269 -89 407 -234 523 -124 99 -307 174 -484 198 l-53 7 3 -39z m698 -899 c14
-279 15 -2524 1 -2975 -15 -463 -29 -525 -146 -616 -171 -133 -640 -273 -1100
-328 -288 -35 -447 -41 -1145 -41 -697 0 -858 6 -1145 40 -459 55 -947 202
-1112 334 -92 72 -118 155 -133 419 -16 279 -24 2295 -11 2881 6 289 12 526
14 527 2 2 75 -22 162 -52 365 -125 839 -216 1345 -258 1137 -95 2323 5 3030
255 80 28 160 56 178 62 17 6 32 17 33 26 4 60 20 -90 29 -274z"/>
<path d="M1795 3387 c-155 -52 -258 -169 -287 -326 -23 -123 21 -262 114 -354
223 -224 602 -119 684 188 49 183 -45 384 -221 469 -51 25 -75 30 -155 33 -61
2 -109 -2 -135 -10z m30 -101 c32 -21 58 -82 51 -118 -21 -106 -145 -142 -215
-62 -94 106 45 258 164 180z m107 -213 c26 -23 22 -58 -8 -82 -31 -24 -62 -16
-83 21 -31 54 43 104 91 61z"/>
<path d="M4540 3384 c-181 -66 -289 -227 -278 -413 7 -106 38 -179 105 -251
232 -251 645 -127 703 211 30 173 -68 357 -230 433 -56 26 -78 31 -160 33 -69
2 -107 -1 -140 -13z m44 -100 c70 -52 60 -171 -18 -208 -43 -20 -69 -20 -112
0 -72 34 -87 142 -28 201 36 37 113 40 158 7z m112 -219 c14 -21 15 -31 5 -51
-26 -58 -110 -43 -111 20 0 54 76 76 106 31z"/>
<path d="M2838 2603 c-25 -30 -27 -48 -9 -89 45 -98 165 -191 293 -226 108
-29 295 -21 392 16 74 28 122 60 170 110 46 49 86 118 86 146 0 33 -28 60 -63
60 -29 0 -36 -7 -97 -87 -70 -92 -169 -133 -321 -133 -159 0 -250 45 -340 166
-32 43 -45 54 -68 54 -15 0 -35 -8 -43 -17z"/>
<path d="M5035 4699 c-130 -15 -568 -38 -934 -50 -417 -13 -1846 -6 -2166 11
-110 6 -253 12 -319 15 -65 2 -121 7 -124 10 -3 3 -32 5 -64 5 -54 0 -58 -2
-58 -23 0 -23 3 -24 143 -36 393 -33 804 -44 1667 -44 919 0 1310 12 1770 53
124 11 233 20 243 20 11 0 17 8 17 25 0 24 -3 25 -52 24 -29 -1 -84 -5 -123
-10z"/>
<path d="M3186 4455 c-50 -17 -90 -47 -94 -69 -5 -24 31 -20 73 8 67 46 173
46 240 0 43 -29 78 -32 73 -7 -4 22 -60 60 -107 73 -51 14 -139 12 -185 -5z"/>
<path d="M3198 4368 c-44 -26 -52 -58 -14 -58 14 0 27 4 31 10 3 5 22 14 42
19 30 9 45 7 81 -9 58 -26 74 -26 70 1 -8 55 -140 78 -210 37z"/>
<path d="M3243 4284 c-9 -25 11 -49 42 -49 35 0 54 27 36 49 -18 21 -70 21
-78 0z"/>
</g>
</svg>
